<?xml version="1.0" encoding="UTF-8" standalone="no"?>
<!DOCTYPE svg PUBLIC "-//W3C//DTD SVG 1.1//EN"
 "http://www.w3.org/Graphics/SVG/1.1/DTD/svg11.dtd">
<!-- Generated by graphviz version 2.43.0 (0)
 -->
<!-- Title: %3 Pages: 1 -->
<svg width="1082pt" height="260pt"
 viewBox="0.00 0.00 1081.75 260.00" xmlns="http://www.w3.org/2000/svg" xmlns:xlink="http://www.w3.org/1999/xlink">
<g id="graph0" class="graph" transform="scale(1 1) rotate(0) translate(4 256)">
<title>%3</title>
<polygon fill="white" stroke="transparent" points="-4,4 -4,-256 1077.75,-256 1077.75,4 -4,4"/>
<!-- [root] google_compute_instance.dev (expand) -->
<g id="node1" class="node">
<title>[root] google_compute_instance.dev (expand)</title>
<polygon fill="none" stroke="black" points="876.43,-108 647.43,-108 647.43,-72 876.43,-72 876.43,-108"/>
<text text-anchor="middle" x="761.93" y="-86.3" font-family="Times,serif" font-size="14.00">google_compute_instance.dev</text>
</g>
<!-- [root] provider[&quot;registry.terraform.io/hashicorp/google&quot;] -->
<g id="node4" class="node">
<title>[root] provider[&quot;registry.terraform.io/hashicorp/google&quot;]</title>
<polygon fill="none" stroke="black" points="354.93,-36 11.4,-18 354.93,0 698.46,-18 354.93,-36"/>
<text text-anchor="middle" x="354.93" y="-14.3" font-family="Times,serif" font-size="14.00">provider[&quot;registry.terraform.io/hashicorp/google&quot;]</text>
</g>
<!-- [root] google_compute_instance.dev (expand)&#45;&gt;[root] provider[&quot;registry.terraform.io/hashicorp/google&quot;] -->
<g id="edge1" class="edge">
<title>[root] google_compute_instance.dev (expand)&#45;&gt;[root] provider[&quot;registry.terraform.io/hashicorp/google&quot;]</title>
<path fill="none" stroke="black" d="M662.89,-71.97C594.99,-60.29 505.8,-44.95 440.9,-33.79"/>
<polygon fill="black" stroke="black" points="441.14,-30.28 430.69,-32.03 439.96,-37.18 441.14,-30.28"/>
</g>
<!-- [root] var.vmdev -->
<g id="node5" class="node">
<title>[root] var.vmdev</title>
<polygon fill="none" stroke="black" points="800.93,-36 716.93,-36 716.93,0 806.93,0 806.93,-30 800.93,-36"/>
<polyline fill="none" stroke="black" points="800.93,-36 800.93,-30 "/>
<polyline fill="none" stroke="black" points="806.93,-30 800.93,-30 "/>
<text text-anchor="middle" x="761.93" y="-14.3" font-family="Times,serif" font-size="14.00">var.vmdev</text>
</g>
<!-- [root] google_compute_instance.dev (expand)&#45;&gt;[root] var.vmdev -->
<g id="edge2" class="edge">
<title>[root] google_compute_instance.dev (expand)&#45;&gt;[root] var.vmdev</title>
<path fill="none" stroke="black" d="M761.93,-71.7C761.93,-63.98 761.93,-54.71 761.93,-46.11"/>
<polygon fill="black" stroke="black" points="765.43,-46.1 761.93,-36.1 758.43,-46.1 765.43,-46.1"/>
</g>
<!-- [root] google_compute_instance.prod (expand) -->
<g id="node2" class="node">
<title>[root] google_compute_instance.prod (expand)</title>
<polygon fill="none" stroke="black" points="628.93,-108 392.93,-108 392.93,-72 628.93,-72 628.93,-108"/>
<text text-anchor="middle" x="510.93" y="-86.3" font-family="Times,serif" font-size="14.00">google_compute_instance.prod</text>
</g>
<!-- [root] google_compute_instance.prod (expand)&#45;&gt;[root] provider[&quot;registry.terraform.io/hashicorp/google&quot;] -->
<g id="edge3" class="edge">
<title>[root] google_compute_instance.prod (expand)&#45;&gt;[root] provider[&quot;registry.terraform.io/hashicorp/google&quot;]</title>
<path fill="none" stroke="black" d="M472.77,-71.88C450.25,-61.77 421.68,-48.95 398.31,-38.47"/>
<polygon fill="black" stroke="black" points="399.54,-35.18 388.98,-34.28 396.67,-41.57 399.54,-35.18"/>
</g>
<!-- [root] google_compute_instance.prod (expand)&#45;&gt;[root] var.vmdev -->
<g id="edge4" class="edge">
<title>[root] google_compute_instance.prod (expand)&#45;&gt;[root] var.vmdev</title>
<path fill="none" stroke="black" d="M577.24,-71.91C613.15,-62.47 658.49,-50.29 707.12,-36.18"/>
<polygon fill="black" stroke="black" points="708.27,-39.49 716.89,-33.33 706.31,-32.77 708.27,-39.49"/>
</g>
<!-- [root] google_compute_network.vpc_network (expand) -->
<g id="node3" class="node">
<title>[root] google_compute_network.vpc_network (expand)</title>
<polygon fill="none" stroke="black" points="374.93,-108 82.93,-108 82.93,-72 374.93,-72 374.93,-108"/>
<text text-anchor="middle" x="228.93" y="-86.3" font-family="Times,serif" font-size="14.00">google_compute_network.vpc_network</text>
</g>
<!-- [root] google_compute_network.vpc_network (expand)&#45;&gt;[root] provider[&quot;registry.terraform.io/hashicorp/google&quot;] -->
<g id="edge5" class="edge">
<title>[root] google_compute_network.vpc_network (expand)&#45;&gt;[root] provider[&quot;registry.terraform.io/hashicorp/google&quot;]</title>
<path fill="none" stroke="black" d="M259.75,-71.88C277.28,-62.14 299.36,-49.87 317.83,-39.61"/>
<polygon fill="black" stroke="black" points="319.54,-42.67 326.58,-34.75 316.14,-36.55 319.54,-42.67"/>
</g>
<!-- [root] meta.count&#45;boundary (EachMode fixup) -->
<g id="node6" class="node">
<title>[root] meta.count&#45;boundary (EachMode fixup)</title>
<ellipse fill="none" stroke="black" cx="222.93" cy="-162" rx="222.86" ry="18"/>
<text text-anchor="middle" x="222.93" y="-158.3" font-family="Times,serif" font-size="14.00">[root] meta.count&#45;boundary (EachMode fixup)</text>
</g>
<!-- [root] meta.count&#45;boundary (EachMode fixup)&#45;&gt;[root] google_compute_instance.dev (expand) -->
<g id="edge6" class="edge">
<title>[root] meta.count&#45;boundary (EachMode fixup)&#45;&gt;[root] google_compute_instance.dev (expand)</title>
<path fill="none" stroke="black" d="M338.35,-146.55C419.12,-136.37 529.82,-122.28 637.36,-108.07"/>
<polygon fill="black" stroke="black" points="637.96,-111.52 647.42,-106.74 637.04,-104.58 637.96,-111.52"/>
</g>
<!-- [root] meta.count&#45;boundary (EachMode fixup)&#45;&gt;[root] google_compute_instance.prod (expand) -->
<g id="edge7" class="edge">
<title>[root] meta.count&#45;boundary (EachMode fixup)&#45;&gt;[root] google_compute_instance.prod (expand)</title>
<path fill="none" stroke="black" d="M289.73,-144.76C331.9,-134.51 386.62,-121.21 431.08,-110.41"/>
<polygon fill="black" stroke="black" points="432.09,-113.76 440.98,-108 430.44,-106.96 432.09,-113.76"/>
</g>
<!-- [root] meta.count&#45;boundary (EachMode fixup)&#45;&gt;[root] google_compute_network.vpc_network (expand) -->
<g id="edge8" class="edge">
<title>[root] meta.count&#45;boundary (EachMode fixup)&#45;&gt;[root] google_compute_network.vpc_network (expand)</title>
<path fill="none" stroke="black" d="M224.41,-143.7C225.07,-135.98 225.87,-126.71 226.61,-118.11"/>
<polygon fill="black" stroke="black" points="230.1,-118.37 227.46,-108.1 223.12,-117.77 230.1,-118.37"/>
</g>
<!-- [root] provider[&quot;registry.terraform.io/hashicorp/google&quot;] (close) -->
<g id="node7" class="node">
<title>[root] provider[&quot;registry.terraform.io/hashicorp/google&quot;] (close)</title>
<ellipse fill="none" stroke="black" cx="768.93" cy="-162" rx="304.65" ry="18"/>
<text text-anchor="middle" x="768.93" y="-158.3" font-family="Times,serif" font-size="14.00">[root] provider[&quot;registry.terraform.io/hashicorp/google&quot;] (close)</text>
</g>
<!-- [root] provider[&quot;registry.terraform.io/hashicorp/google&quot;] (close)&#45;&gt;[root] google_compute_instance.dev (expand) -->
<g id="edge9" class="edge">
<title>[root] provider[&quot;registry.terraform.io/hashicorp/google&quot;] (close)&#45;&gt;[root] google_compute_instance.dev (expand)</title>
<path fill="none" stroke="black" d="M767.2,-143.7C766.43,-135.98 765.5,-126.71 764.64,-118.11"/>
<polygon fill="black" stroke="black" points="768.12,-117.71 763.64,-108.1 761.15,-118.4 768.12,-117.71"/>
</g>
<!-- [root] provider[&quot;registry.terraform.io/hashicorp/google&quot;] (close)&#45;&gt;[root] google_compute_instance.prod (expand) -->
<g id="edge10" class="edge">
<title>[root] provider[&quot;registry.terraform.io/hashicorp/google&quot;] (close)&#45;&gt;[root] google_compute_instance.prod (expand)</title>
<path fill="none" stroke="black" d="M707.46,-144.32C670.22,-134.22 622.54,-121.28 583.46,-110.68"/>
<polygon fill="black" stroke="black" points="584.29,-107.28 573.72,-108.04 582.46,-114.03 584.29,-107.28"/>
</g>
<!-- [root] provider[&quot;registry.terraform.io/hashicorp/google&quot;] (close)&#45;&gt;[root] google_compute_network.vpc_network (expand) -->
<g id="edge11" class="edge">
<title>[root] provider[&quot;registry.terraform.io/hashicorp/google&quot;] (close)&#45;&gt;[root] google_compute_network.vpc_network (expand)</title>
<path fill="none" stroke="black" d="M648.75,-145.42C566.39,-134.75 456.82,-120.54 370.27,-109.32"/>
<polygon fill="black" stroke="black" points="370.47,-105.82 360.1,-108 369.57,-112.76 370.47,-105.82"/>
</g>
<!-- [root] root -->
<g id="node8" class="node">
<title>[root] root</title>
<ellipse fill="none" stroke="black" cx="495.93" cy="-234" rx="58.49" ry="18"/>
<text text-anchor="middle" x="495.93" y="-230.3" font-family="Times,serif" font-size="14.00">[root] root</text>
</g>
<!-- [root] root&#45;&gt;[root] meta.count&#45;boundary (EachMode fixup) -->
<g id="edge12" class="edge">
<title>[root] root&#45;&gt;[root] meta.count&#45;boundary (EachMode fixup)</title>
<path fill="none" stroke="black" d="M452.37,-221.83C410.38,-211.07 346.06,-194.57 296.19,-181.78"/>
<polygon fill="black" stroke="black" points="296.97,-178.37 286.42,-179.28 295.23,-185.15 296.97,-178.37"/>
</g>
<!-- [root] root&#45;&gt;[root] provider[&quot;registry.terraform.io/hashicorp/google&quot;] (close) -->
<g id="edge13" class="edge">
<title>[root] root&#45;&gt;[root] provider[&quot;registry.terraform.io/hashicorp/google&quot;] (close)</title>
<path fill="none" stroke="black" d="M539.49,-221.83C581.12,-211.16 644.72,-194.85 694.41,-182.11"/>
<polygon fill="black" stroke="black" points="695.34,-185.48 704.15,-179.61 693.6,-178.7 695.34,-185.48"/>
</g>
</g>
</svg>
